<svg width="3989" height="2000" viewBox="0 0 3989 2000" fill="none" xmlns="http://www.w3.org/2000/svg">
<path d="M3681.17 1183.15H3629.96L3547.13 462.55H3598.34L3681.17 1183.15Z" fill="#FF1D5D"/>
<path d="M3604.25 513.903L3558.93 565.083L3556.02 539.783L3601.35 488.603L3604.25 513.903Z" fill="white"/>
<path d="M3611.58 577.633L3566.25 628.813L3563.34 603.513L3608.67 552.333L3611.58 577.633Z" fill="white"/>
<path d="M3618.9 641.363L3573.58 692.544L3570.67 667.243L3616 616.063L3618.9 641.363Z" fill="white"/>
<path d="M3626.23 705.093L3580.9 756.274L3577.99 730.974L3623.32 679.794L3626.23 705.093Z" fill="white"/>
<path d="M3633.55 768.823L3588.23 819.993L3585.32 794.703L3630.65 743.524L3633.55 768.823Z" fill="white"/>
<path d="M3640.88 832.553L3595.55 883.724L3592.64 858.433L3637.97 807.254L3640.88 832.553Z" fill="white"/>
<path d="M3648.21 896.283L3602.88 947.453L3599.97 922.163L3645.3 870.984L3648.21 896.283Z" fill="white"/>
<path d="M3655.53 960.004L3610.2 1011.18L3607.3 985.893L3652.62 934.714L3655.53 960.004Z" fill="white"/>
<path d="M3662.86 1023.73L3617.53 1074.91L3614.62 1049.61L3659.95 998.443L3662.86 1023.73Z" fill="white"/>
<path d="M3670.18 1087.46L3624.85 1138.64L3621.95 1113.34L3667.27 1062.17L3670.18 1087.46Z" fill="white"/>
<path d="M3937.22 1183.15L3852.6 1925.15C3847.89 1966.12 3813.21 1997.04 3771.97 1997.04H3495.71C3454.47 1997.04 3419.79 1966.12 3415.08 1925.15L3329.96 1183.15H3937.22Z" fill="#A9D8D5"/>
<path d="M3677.51 1151.19L3649.2 1183.15H3629.97L3629.27 1177.07L3674.6 1125.9L3677.51 1151.19Z" fill="white"/>
<path d="M3951.66 1063.37L3852.6 1925.15C3847.89 1966.12 3813.21 1997.04 3771.97 1997.04H3495.7C3454.46 1997.04 3419.78 1966.12 3415.07 1925.15L3316.02 1063.37H3951.66Z" stroke="#A9D8D5" stroke-width="5" stroke-miterlimit="10"/>
<path d="M3561.66 1512.65L3825.41 1323.42C3859.24 1397.2 3839.91 1484.77 3774.89 1531.42C3709.87 1578.06 3620.71 1568.33 3561.66 1512.65Z" fill="#F1B104"/>
<path d="M3729.7 1530.89L3706.23 1435.34L3789.13 1488.11C3781.56 1497.68 3772.58 1506.35 3762.23 1513.77C3752 1521.11 3741.06 1526.8 3729.7 1530.89Z" fill="#FF1D5D"/>
<path d="M3716.39 1421.92L3818.72 1399.21C3819.04 1425.05 3812.61 1450.43 3799.79 1472.43L3716.39 1421.92Z" fill="#FF1D5D"/>
<path d="M3635.85 1530.67L3690.44 1440.54L3711.63 1535.99C3686.58 1541.22 3660.36 1539.26 3635.85 1530.67Z" fill="#FF1D5D"/>
<path d="M3613.77 1520.85C3602.51 1514.72 3591.87 1507.04 3582.18 1497.92L3673.39 1432.48L3613.77 1520.85Z" fill="#FF1D5D"/>
<path d="M3712.73 1404.26L3804.88 1338.14C3810.49 1350.36 3814.37 1363.03 3816.55 1375.8L3712.73 1404.26Z" fill="#FF1D5D"/>
<path d="M3936.29 1014.12H3331.38C3304.18 1014.12 3282.13 1036.17 3282.13 1063.37H3985.54C3985.54 1036.17 3963.49 1014.12 3936.29 1014.12Z" stroke="#573240" stroke-width="5" stroke-miterlimit="10" stroke-linecap="round"/>
<path d="M3937.71 1014.12C3908.42 889.268 3797.04 801 3668.8 801H3598.87C3470.63 801 3359.25 889.268 3329.96 1014.12H3937.71V1014.12Z" stroke="#573240" stroke-width="5" stroke-miterlimit="10" stroke-linecap="round"/>
<path d="M3725.02 1944.93H3619.65C3606.49 1944.93 3595.81 1934.26 3595.81 1921.09V1815.72C3595.81 1802.56 3606.49 1791.88 3619.65 1791.88H3725.02C3738.19 1791.88 3748.86 1802.56 3748.86 1815.72V1921.09C3748.86 1934.26 3738.19 1944.93 3725.02 1944.93Z" fill="#E0F1F0"/>
<path d="M3809.5 1755.26H3726.58C3713.41 1755.26 3702.74 1744.58 3702.74 1731.42V1648.5C3702.74 1635.33 3713.41 1624.66 3726.58 1624.66H3809.5C3822.66 1624.66 3833.34 1635.33 3833.34 1648.5V1731.42C3833.33 1744.58 3822.66 1755.26 3809.5 1755.26Z" fill="#E0F1F0"/>
<path d="M3527.91 1819H3444.99C3431.83 1819 3421.15 1808.32 3421.15 1795.16V1712.24C3421.15 1699.07 3431.83 1688.4 3444.99 1688.4H3527.91C3541.08 1688.4 3551.75 1699.07 3551.75 1712.24V1795.16C3551.75 1808.32 3541.08 1819 3527.91 1819Z" fill="#E0F1F0"/>
<path d="M3583.83 1433.39C3591.63 1433.39 3597.96 1427.06 3597.96 1419.25C3597.96 1411.45 3591.63 1405.12 3583.83 1405.12C3576.02 1405.12 3569.7 1411.45 3569.7 1419.25C3569.7 1427.06 3576.02 1433.39 3583.83 1433.39Z" stroke="white" stroke-width="5" stroke-miterlimit="10"/>
<path d="M3509.49 1640.17C3517.29 1640.17 3523.62 1633.84 3523.62 1626.04C3523.62 1618.23 3517.29 1611.91 3509.49 1611.91C3501.68 1611.91 3495.36 1618.23 3495.36 1626.04C3495.36 1633.84 3501.68 1640.17 3509.49 1640.17Z" stroke="white" stroke-width="5" stroke-miterlimit="10"/>
<path d="M3475.35 1317.06C3486.4 1317.06 3495.35 1308.11 3495.35 1297.06C3495.35 1286.01 3486.4 1277.06 3475.35 1277.06C3464.31 1277.06 3455.35 1286.01 3455.35 1297.06C3455.35 1308.11 3464.31 1317.06 3475.35 1317.06Z" stroke="white" stroke-width="5" stroke-miterlimit="10"/>
<path d="M3815.55 1523.11C3826.6 1523.11 3835.55 1514.16 3835.55 1503.11C3835.55 1492.07 3826.6 1483.11 3815.55 1483.11C3804.51 1483.11 3795.55 1492.07 3795.55 1503.11C3795.55 1514.16 3804.51 1523.11 3815.55 1523.11Z" stroke="white" stroke-width="5" stroke-miterlimit="10"/>
<path d="M3653.16 1649.04C3659.51 1649.04 3664.66 1643.89 3664.66 1637.54C3664.66 1631.19 3659.51 1626.04 3653.16 1626.04C3646.81 1626.04 3641.66 1631.19 3641.66 1637.54C3641.66 1643.89 3646.81 1649.04 3653.16 1649.04Z" stroke="white" stroke-width="5" stroke-miterlimit="10"/>
<path d="M3843.31 1550.87C3847.45 1550.87 3850.81 1547.51 3850.81 1543.37C3850.81 1539.23 3847.45 1535.87 3843.31 1535.87C3839.16 1535.87 3835.81 1539.23 3835.81 1543.37C3835.81 1547.51 3839.16 1550.87 3843.31 1550.87Z" stroke="white" stroke-width="5" stroke-miterlimit="10"/>
<path d="M3766 1304.15C3772.91 1304.15 3778.5 1298.55 3778.5 1291.65C3778.5 1284.74 3772.91 1279.15 3766 1279.15C3759.1 1279.15 3753.5 1284.74 3753.5 1291.65C3753.5 1298.55 3759.1 1304.15 3766 1304.15Z" stroke="white" stroke-width="5" stroke-miterlimit="10"/>
<path d="M3437.57 1346.19C3441.71 1346.19 3445.07 1342.83 3445.07 1338.69C3445.07 1334.55 3441.71 1331.19 3437.57 1331.19C3433.42 1331.19 3430.07 1334.55 3430.07 1338.69C3430.07 1342.83 3433.42 1346.19 3437.57 1346.19Z" stroke="white" stroke-width="5" stroke-miterlimit="10"/>
<path d="M3445.07 1579.85C3449.21 1579.85 3452.57 1576.49 3452.57 1572.35C3452.57 1568.2 3449.21 1564.85 3445.07 1564.85C3440.92 1564.85 3437.57 1568.2 3437.57 1572.35C3437.57 1576.49 3440.92 1579.85 3445.07 1579.85Z" stroke="white" stroke-width="5" stroke-miterlimit="10"/>
<path d="M2485.26 81.133V257.103H2408.18V78.664H2031.26V257.103H1954.18V81.133L2034.35 0.953979H2405.08L2485.26 81.133Z" fill="#573240"/>
<path d="M2454.26 257.11V81.13L2374.08 0.950012H2003.35L1923.18 81.13V257.11H1614.8L1414.8 1997.05H2759.5V257.11H2454.26ZM2377.18 257.11H2000.26V78.66H2377.18V257.11Z" fill="#FDC7C9"/>
<path d="M3000.5 1997.04H2759.5V257.103H2800.5L3000.5 1997.04Z" fill="#573240"/>
<path d="M2410.56 832.73C2410.56 963.93 2329.54 1075.22 2217.26 1114.25V900.93C2217.26 881.55 2226.84 863.37 2242.97 851.12C2259.92 838.25 2271.14 815.81 2271.14 790.28C2271.14 750.32 2243.66 717.96 2209.77 717.96C2175.88 717.96 2148.4 750.32 2148.4 790.28C2148.4 815.81 2159.62 838.25 2176.57 851.12C2192.7 863.37 2202.28 881.55 2202.28 900.93V1118.98C2178.84 1125.63 2154.2 1129.17 2128.77 1129.17C2103.52 1129.17 2079.05 1125.68 2055.76 1119.12V929.26C2055.76 909.88 2065.34 891.7 2081.47 879.45C2090.89 872.3 2098.55 862.17 2103.49 850.21C2107.43 840.67 2109.64 829.95 2109.64 818.62V725.45C2109.64 721.31 2106.29 717.96 2102.15 717.96H2102.14C2098.01 717.96 2094.65 721.31 2094.65 725.45V826.46C2094.65 831.83 2092.48 836.69 2088.96 840.21C2085.44 843.73 2080.58 845.91 2075.21 845.91C2064.47 845.91 2055.76 837.2 2055.76 826.46V725.45C2055.76 723.38 2054.92 721.51 2053.57 720.15C2052.21 718.8 2050.34 717.96 2048.27 717.96C2044.13 717.96 2040.78 721.31 2040.78 725.45V826.46C2040.78 837.2 2032.08 845.91 2021.34 845.91H2021.33C2010.59 845.91 2001.88 837.2 2001.88 826.46V725.45C2001.88 723.38 2001.04 721.51 1999.69 720.15C1998.33 718.8 1996.46 717.96 1994.39 717.96C1990.25 717.96 1986.9 721.31 1986.9 725.45V818.62C1986.9 829.95 1989.11 840.67 1993.05 850.21C1997.99 862.17 2005.64 872.3 2015.06 879.45C2031.2 891.7 2040.78 909.88 2040.78 929.26V1114.43C1928.24 1075.55 1846.98 964.12 1846.98 832.73C1846.98 669.01 1973.14 536.28 2128.77 536.28C2284.4 536.28 2410.56 669.01 2410.56 832.73Z" fill="white"/>
<path d="M1923.18 80.133H2454.26" stroke="#573240" stroke-width="5" stroke-miterlimit="10" stroke-linecap="round"/>
<path d="M3128.03 1694.77L3019.45 1476.69C2994.07 1425.72 2942.04 1393.5 2885.1 1393.5H2179.41C2122.47 1393.5 2070.44 1425.72 2045.06 1476.69L1936.48 1694.77H3128.03Z" fill="#FDE5E3" stroke="#573240" stroke-width="5" stroke-miterlimit="10" stroke-linecap="round"/>
<path d="M2920.91 1763.26C2864.68 1823.29 2792 1846.58 2738.87 1796.81C2685.74 1747.03 2704.24 1672.99 2760.48 1612.96C2816.72 1552.94 2908.03 1527.45 2952.33 1568.96C2996.63 1610.46 2977.15 1703.24 2920.91 1763.26Z" fill="white"/>
<path d="M2892.41 1715.83C2899.72 1678.5 2875.38 1642.31 2838.05 1635C2800.72 1627.69 2764.53 1652.02 2757.22 1689.35C2749.91 1726.68 2774.24 1762.88 2811.57 1770.19C2848.9 1777.5 2885.1 1753.16 2892.41 1715.83Z" fill="#F1B104"/>
<path d="M3549.55 1644.16C3569.53 1707.75 3557.03 1768.31 3500.76 1785.99C3444.48 1803.67 3399.59 1761.14 3379.62 1697.56C3359.64 1633.97 3378 1559.39 3424.93 1544.65C3471.85 1529.9 3529.57 1580.58 3549.55 1644.16Z" fill="white"/>
<path d="M3507.98 1727.1C3529.78 1705.3 3529.78 1669.97 3507.98 1648.17C3486.19 1626.37 3450.85 1626.37 3429.05 1648.17C3407.26 1669.97 3407.26 1705.3 3429.05 1727.1C3450.85 1748.89 3486.19 1748.89 3507.98 1727.1Z" fill="#F1B104"/>
<path d="M2467.27 1772.48L2224.22 1638.49C2264.91 1592.17 2336.75 1580.09 2396.66 1613.12C2456.57 1646.15 2484.72 1713.35 2467.27 1772.48Z" fill="#FF1D5D"/>
<path d="M2376.76 1672.48C2372.52 1680.17 2353.42 1691.57 2353.42 1691.57C2353.42 1691.57 2352.86 1669.34 2357.1 1661.64C2361.34 1653.95 2369.18 1650.14 2374.6 1653.14C2380.03 1656.13 2381 1664.79 2376.76 1672.48Z" stroke="#573240" stroke-width="4" stroke-miterlimit="10" stroke-linecap="round" stroke-linejoin="round"/>
<path d="M2401.44 1711.69C2392.73 1712.8 2372.26 1704.09 2372.26 1704.09C2372.26 1704.09 2389.88 1690.53 2398.6 1689.42C2407.31 1688.31 2415.01 1692.39 2415.79 1698.54C2416.57 1704.69 2410.15 1710.58 2401.44 1711.69Z" stroke="#573240" stroke-width="4" stroke-miterlimit="10" stroke-linecap="round" stroke-linejoin="round"/>
<path d="M2310.77 1661.7C2314.48 1669.66 2332.77 1682.32 2332.77 1682.32C2332.77 1682.32 2334.83 1660.18 2331.12 1652.22C2327.41 1644.26 2319.84 1639.93 2314.23 1642.55C2308.61 1645.17 2307.06 1653.74 2310.77 1661.7Z" stroke="#573240" stroke-width="4" stroke-miterlimit="10" stroke-linecap="round" stroke-linejoin="round"/>
<path d="M3130.53 1726.12L3332.01 1553.86C3359.42 1606.47 3345.83 1675.26 3296.17 1717.73C3246.5 1760.19 3177.21 1762.26 3130.53 1726.12Z" fill="#FF1D5D"/>
<path d="M3250.11 1679.29C3244.71 1672.82 3241.04 1651.7 3241.04 1651.7C3241.04 1651.7 3261.01 1658.89 3266.41 1665.36C3271.81 1671.83 3272.54 1680.2 3268.04 1684.05C3263.54 1687.9 3255.52 1685.77 3250.11 1679.29Z" stroke="#573240" stroke-width="4" stroke-miterlimit="10" stroke-linecap="round" stroke-linejoin="round"/>
<path d="M3206.89 1687.94C3208.85 1679.72 3223.53 1664.32 3223.53 1664.32C3223.53 1664.32 3229.62 1684.86 3227.66 1693.08C3225.69 1701.3 3219.46 1706.81 3213.72 1705.39C3207.99 1703.97 3204.93 1696.16 3206.89 1687.94Z" stroke="#573240" stroke-width="4" stroke-miterlimit="10" stroke-linecap="round" stroke-linejoin="round"/>
<path d="M3282.05 1623.68C3273.71 1624.26 3256.26 1636.33 3256.26 1636.33C3256.26 1636.33 3275.26 1645.84 3283.59 1645.26C3291.93 1644.67 3298.34 1639.37 3297.91 1633.41C3297.49 1627.45 3290.38 1623.09 3282.05 1623.68Z" stroke="#573240" stroke-width="4" stroke-miterlimit="10" stroke-linecap="round" stroke-linejoin="round"/>
<path d="M2779.19 1729.89C2779.19 1729.89 2701.88 1694.45 2705.4 1589.55C2708.93 1484.65 2802.66 1451.15 2820.18 1483.96C2831.69 1505.51 2818.19 1532.31 2780.65 1546.18C2738.14 1561.88 2712.86 1574.99 2719 1624.99C2724.55 1670.17 2745.47 1704.32 2779.19 1729.89Z" fill="#A9D8D5"/>
<path d="M2779.19 1729.89C2779.19 1729.89 2690.16 1669.73 2723.2 1571.69C2750.71 1490.1 2805.35 1497.26 2805.35 1497.26" stroke="#573240" stroke-width="4" stroke-miterlimit="10" stroke-linecap="round" stroke-linejoin="round"/>
<path d="M2737.37 1540.48C2743.1 1532.38 2748.22 1518.9 2745.52 1502.97" stroke="#573240" stroke-width="4" stroke-miterlimit="10" stroke-linecap="round" stroke-linejoin="round"/>
<path d="M2599.17 1762.89C2644.42 1762.89 2681.1 1726.21 2681.1 1680.96C2681.1 1635.71 2644.42 1599.03 2599.17 1599.03C2553.92 1599.03 2517.24 1635.71 2517.24 1680.96C2517.24 1726.21 2553.92 1762.89 2599.17 1762.89Z" fill="#A9D8D5"/>
<path d="M2611.44 1649.52C2610.64 1655.59 2601.15 1667.83 2601.15 1667.83C2601.15 1667.83 2595.14 1653.56 2595.93 1647.49C2596.73 1641.43 2600.84 1636.97 2605.12 1637.53C2609.41 1638.09 2612.23 1643.46 2611.44 1649.52Z" stroke="#573240" stroke-width="4" stroke-miterlimit="10" stroke-linecap="round" stroke-linejoin="round"/>
<path d="M2587.29 1713.48C2588.08 1707.42 2597.57 1695.18 2597.57 1695.18C2597.57 1695.18 2603.58 1709.45 2602.79 1715.51C2601.99 1721.58 2597.88 1726.04 2593.6 1725.48C2589.32 1724.92 2586.49 1719.55 2587.29 1713.48Z" stroke="#573240" stroke-width="4" stroke-miterlimit="10" stroke-linecap="round" stroke-linejoin="round"/>
<path d="M2567.38 1669.43C2573.45 1670.22 2585.69 1679.71 2585.69 1679.71C2585.69 1679.71 2571.42 1685.73 2565.35 1684.93C2559.29 1684.14 2554.82 1680.02 2555.39 1675.74C2555.95 1671.46 2561.32 1668.63 2567.38 1669.43Z" stroke="#573240" stroke-width="4" stroke-miterlimit="10" stroke-linecap="round" stroke-linejoin="round"/>
<path d="M2631.34 1693.58C2625.28 1692.78 2613.03 1683.29 2613.03 1683.29C2613.03 1683.29 2627.31 1677.28 2633.37 1678.08C2639.44 1678.87 2643.9 1682.99 2643.34 1687.27C2642.77 1691.55 2637.4 1694.37 2631.34 1693.58Z" stroke="#573240" stroke-width="4" stroke-miterlimit="10" stroke-linecap="round" stroke-linejoin="round"/>
<path d="M2048.87 1748.63C2075.75 1748.63 2097.54 1726.84 2097.54 1699.96C2097.54 1673.08 2075.75 1651.29 2048.87 1651.29C2021.99 1651.29 2000.2 1673.08 2000.2 1699.96C2000.2 1726.84 2021.99 1748.63 2048.87 1748.63Z" fill="white"/>
<path d="M2225.95 1694.92C2205.98 1694.25 2183.78 1688.34 2158.91 1679.66C2059.78 1645.02 2060.39 1555.06 2092.07 1547.47C2116.87 1541.52 2135.51 1565.02 2137.55 1605C2139.89 1650.28 2148.2 1682.32 2197.78 1691.36C2207.21 1693.08 2216.64 1694.3 2225.95 1694.92Z" fill="#A9D8D5"/>
<path d="M2239.95 1695.13C2211.79 1696.68 2179.33 1690.96 2147.56 1668.66C2095.34 1632.01 2097.49 1564.71 2097.49 1564.71" stroke="#573240" stroke-width="4" stroke-miterlimit="10" stroke-linecap="round" stroke-linejoin="round"/>
<path d="M2233.11 1693.9C2236.78 1694.5 2177.38 1689.08 2161.15 1637.35C2149.07 1598.85 2178.98 1589.93 2190.98 1602.04C2204.35 1615.55 2193.94 1652.58 2210.91 1677.14C2215.84 1684.27 2215.16 1690.95 2233.11 1693.9Z" fill="#A9D8D5"/>
<path d="M2180.12 1613.44C2180.12 1613.44 2171.39 1678.8 2239.95 1695.12" stroke="#573240" stroke-width="4" stroke-miterlimit="10" stroke-linecap="round" stroke-linejoin="round"/>
<path d="M3079.54 1696.42C3075.2 1697.31 3071.38 1697.11 3067.96 1696.1C3100.05 1681.59 3110.8 1650.08 3118.45 1608.94C3127.43 1560.64 3154.71 1534.95 3185.06 1546C3223.85 1560.11 3210.23 1669.58 3079.54 1696.42Z" fill="#A9D8D5"/>
<path d="M2960.21 1710.91C2995.92 1714.39 3059.02 1709.2 3100.7 1683.68C3169.2 1641.73 3169.3 1566.47 3169.3 1566.47" stroke="#573240" stroke-width="4" stroke-miterlimit="10" stroke-linecap="round" stroke-linejoin="round"/>
<path d="M2968.97 1709.79C2964.27 1710.33 3040.09 1707.02 3063.73 1644.58C3081.31 1598.12 3043.81 1585.53 3027.87 1599.69C3010.08 1615.48 3021.16 1661.4 2998.16 1690.52C2991.49 1698.97 2991.96 1707.19 2968.97 1709.79Z" fill="#A9D8D5"/>
<path d="M3041 1614.25C3041 1614.25 3048.31 1694.76 2960.21 1710.91" stroke="#573240" stroke-width="4" stroke-miterlimit="10" stroke-linecap="round" stroke-linejoin="round"/>
<path d="M3609.03 1694.77L3500.45 1476.69C3475.07 1425.72 3423.04 1393.5 3366.1 1393.5H2885.1C2942.04 1393.5 2994.07 1425.72 3019.45 1476.69L3128.03 1694.77H3609.03Z" stroke="#573240" stroke-width="5" stroke-miterlimit="10" stroke-linecap="round"/>
<path d="M3128.03 1694.77L3019.45 1476.69C2994.07 1425.72 2942.04 1393.5 2885.1 1393.5H2179.41C2122.47 1393.5 2070.44 1425.72 2045.06 1476.69L1936.48 1694.77H3128.03Z" stroke="#573240" stroke-width="5" stroke-miterlimit="10" stroke-linecap="round"/>
<path d="M2666.64 1393.5H2320.81V1559.44H2666.64V1393.5Z" fill="#573240"/>
<path d="M3128.03 1695.77L3019.45 1913.86C2994.07 1964.82 2942.04 1997.04 2885.11 1997.04H2179.41C2122.47 1997.04 2070.44 1964.82 2045.06 1913.86L1936.48 1695.77H3128.03Z" fill="white"/>
<path d="M3609.03 1694.77L3500.45 1912.85C3475.07 1963.82 3423.04 1996.04 3366.1 1996.04H2885.1C2942.04 1996.04 2994.07 1963.82 3019.45 1912.85L3128.03 1694.77H3609.03Z" fill="white"/>
<path d="M3609.03 1694.77L3500.45 1912.85C3475.07 1963.82 3423.04 1996.04 3366.1 1996.04H2179.41C2122.47 1996.04 2070.44 1963.82 2045.06 1912.85L1936.48 1694.77H3609.03Z" fill="white"/>
<path d="M3500.45 1912.85C3475.07 1963.82 3423.04 1996.04 3366.1 1996.04H2885.1C2942.04 1996.04 2994.07 1963.82 3019.45 1912.85L3128.03 1694.77" stroke="#573240" stroke-width="5" stroke-miterlimit="10" stroke-linecap="round"/>
<path d="M3128.03 1694.77L3019.45 1912.85C2994.07 1963.82 2942.04 1996.04 2885.1 1996.04H2149.41" stroke="#573240" stroke-width="5" stroke-miterlimit="10" stroke-linecap="round"/>
<path d="M1902.12 1695.77H3643.39" stroke="#573240" stroke-width="5" stroke-miterlimit="10" stroke-linecap="round"/>
<path d="M2524.29 1500.93H2494.53V1471.17C2494.53 1440.27 2519.57 1415.23 2550.47 1415.23H2580.23V1444.99C2580.23 1475.88 2555.18 1500.93 2524.29 1500.93Z" stroke="#A9D8D5" stroke-width="4" stroke-miterlimit="10"/>
<path d="M2580.23 1415.23L2474.84 1520.62" stroke="#A9D8D5" stroke-width="4" stroke-miterlimit="10"/>
<path d="M2548.3 1416.23V1447.16H2579.23" stroke="#A9D8D5" stroke-width="4" stroke-miterlimit="10"/>
<path d="M2518.97 1425.42V1476.49H2570.03" stroke="#A9D8D5" stroke-width="4" stroke-miterlimit="10"/>
<path d="M2469.35 1503.08H2477.17V1495.27C2477.17 1464.38 2452.12 1439.33 2421.23 1439.33H2413.42V1447.14C2413.42 1478.04 2438.46 1503.08 2469.35 1503.08Z" stroke="#A9D8D5" stroke-width="4" stroke-miterlimit="10"/>
<path d="M2413.42 1439.33L2484.77 1510.69" stroke="#A9D8D5" stroke-width="4" stroke-miterlimit="10"/>
<path d="M2453.99 1449.92V1479.9H2424" stroke="#A9D8D5" stroke-width="4" stroke-miterlimit="10"/>
<path d="M3252.12 1168.41L3175.32 1322.66C3154.51 1364.47 3111.84 1390.89 3065.14 1390.89H2861.54C2908.24 1390.89 2950.92 1364.47 2971.73 1322.66L3048.53 1168.41H3252.12V1168.41Z" fill="#573240"/>
<path d="M3048.53 1168.41L3040.36 1184.81L2971.73 1322.66C2950.92 1364.47 2908.24 1390.89 2861.54 1390.89H2569.82C2523.12 1390.89 2480.45 1364.47 2459.63 1322.66L2391 1184.81L2382.83 1168.41H3048.53V1168.41Z" fill="#FF1D5D"/>
<path d="M3048.53 1168.41L3036.53 1192.77H2395.17L2382.83 1168.41H3048.53Z" fill="#573240"/>
<path d="M3280.9 1168.41L3188.59 983.006C3167.01 939.674 3122.78 912.282 3074.37 912.282H2862.97C2911.38 912.282 2955.61 939.674 2977.19 983.006L3069.5 1168.41H3280.9Z" fill="#FCD4D0"/>
<path d="M3069.5 1168.41L2977.19 983.006C2955.61 939.674 2911.38 912.282 2862.97 912.282H2560.58C2512.18 912.282 2467.94 939.674 2446.37 983.006L2354.06 1168.41H3069.5Z" fill="white"/>
<path d="M1483.51 980.204L1415.46 1572.34H488.456L558.276 964.864H1469.84C1478.06 964.863 1484.45 972.031 1483.51 980.204Z" fill="#F6ACC1"/>
<path d="M1343.58 964.863C1332.58 964.863 1323.33 973.111 1322.07 984.037L1315.04 1045.23C1309.55 1092.98 1269.13 1129.02 1221.06 1129.02H484.497C427.974 1129.02 384.066 1079.78 390.521 1023.63L395.589 979.539C396.55 971.176 403.631 964.863 412.049 964.863H1343.58Z" fill="#FCD4D0"/>
<path d="M1056.64 1982.82C1216.06 1982.82 1345.29 1851.04 1345.29 1688.47C1345.29 1525.91 1216.06 1394.12 1056.64 1394.12C897.219 1394.12 767.985 1525.91 767.985 1688.47C767.985 1851.04 897.219 1982.82 1056.64 1982.82Z" fill="#573240"/>
<path d="M1005.64 1394.12C846.22 1394.12 716.98 1525.91 716.98 1688.47C716.98 1851.04 846.22 1982.82 1005.64 1982.82C1165.06 1982.82 1294.29 1851.04 1294.29 1688.47C1294.29 1525.91 1165.06 1394.12 1005.64 1394.12ZM1005.64 1789.76C951.97 1789.76 908.47 1745.39 908.47 1690.67C908.47 1635.95 951.97 1591.58 1005.64 1591.58C1059.3 1591.58 1102.81 1635.95 1102.81 1690.67C1102.81 1745.39 1059.3 1789.76 1005.64 1789.76Z" fill="#A9D8D5"/>
<path d="M1048.26 1446.11H1023.62C1020.87 1446.11 1018.64 1443.88 1018.64 1441.14V1440.8C1018.64 1438.05 1020.87 1435.82 1023.62 1435.82H1048.26C1051.01 1435.82 1053.24 1438.05 1053.24 1440.8V1441.14C1053.24 1443.88 1051.01 1446.11 1048.26 1446.11Z" fill="white"/>
<path d="M1087.97 1551.42H1063.33C1060.58 1551.42 1058.36 1549.2 1058.36 1546.45V1546.11C1058.36 1543.36 1060.58 1541.13 1063.33 1541.13H1087.97C1090.72 1541.13 1092.95 1543.36 1092.95 1546.11V1546.45C1092.95 1549.2 1090.72 1551.42 1087.97 1551.42Z" fill="#573240"/>
<path d="M882.374 1488.62L861.54 1501.78C859.216 1503.25 856.142 1502.55 854.675 1500.23L854.493 1499.94C853.025 1497.62 853.72 1494.54 856.044 1493.08L876.878 1479.92C879.202 1478.45 882.276 1479.15 883.743 1481.47L883.925 1481.76C885.393 1484.08 884.698 1487.16 882.374 1488.62Z" fill="white"/>
<path d="M1203.27 1538.76L1189.82 1559.41C1188.32 1561.71 1185.24 1562.36 1182.94 1560.86L1182.65 1560.68C1180.35 1559.18 1179.7 1556.1 1181.2 1553.79L1194.64 1533.14C1196.14 1530.84 1199.22 1530.19 1201.53 1531.69L1201.81 1531.88C1204.12 1533.37 1204.77 1536.46 1203.27 1538.76Z" fill="white"/>
<path d="M997.247 1535.81L976.413 1548.97C974.089 1550.44 971.015 1549.74 969.548 1547.42L969.366 1547.13C967.898 1544.81 968.593 1541.73 970.917 1540.27L991.751 1527.11C994.075 1525.64 997.149 1526.34 998.616 1528.66L998.798 1528.95C1000.27 1531.27 999.571 1534.35 997.247 1535.81Z" fill="white"/>
<path d="M944.714 1467.43L930.35 1447.41C928.748 1445.18 929.259 1442.07 931.493 1440.47L931.77 1440.27C934.003 1438.67 937.113 1439.18 938.715 1441.41L953.079 1461.43C954.681 1463.66 954.17 1466.77 951.936 1468.38L951.659 1468.57C949.426 1470.18 946.316 1469.66 944.714 1467.43Z" fill="#573240"/>
<path d="M1144.17 1544.2L1129.81 1524.18C1128.21 1521.95 1128.72 1518.84 1130.95 1517.23L1131.23 1517.04C1133.46 1515.43 1136.57 1515.94 1138.17 1518.18L1152.54 1538.2C1154.14 1540.43 1153.63 1543.54 1151.39 1545.15L1151.12 1545.34C1148.88 1546.95 1145.77 1546.43 1144.17 1544.2Z" fill="#FF6E00"/>
<path d="M834.636 1551.99L815.478 1536.49C813.341 1534.76 813.01 1531.63 814.738 1529.49L814.952 1529.23C816.681 1527.09 819.814 1526.76 821.951 1528.49L841.109 1543.98C843.246 1545.71 843.578 1548.84 841.849 1550.98L841.635 1551.25C839.907 1553.38 836.774 1553.72 834.636 1551.99Z" fill="#FF6E00"/>
<path d="M1131.86 1481.93L1112.7 1466.44C1110.56 1464.71 1110.23 1461.57 1111.96 1459.44L1112.17 1459.17C1113.9 1457.04 1117.04 1456.7 1119.17 1458.43L1138.33 1473.93C1140.47 1475.66 1140.8 1478.79 1139.07 1480.93L1138.86 1481.19C1137.13 1483.33 1134 1483.66 1131.86 1481.93Z" fill="white"/>
<path d="M906.603 1546L910.798 1521.72C911.266 1519.01 913.841 1517.2 916.55 1517.66L916.885 1517.72C919.594 1518.19 921.41 1520.76 920.942 1523.47L916.747 1547.75C916.279 1550.46 913.704 1552.28 910.995 1551.81L910.66 1551.75C907.951 1551.28 906.135 1548.71 906.603 1546Z" fill="#F1B104"/>
<path d="M876.696 1631.85L880.891 1607.57C881.359 1604.87 883.934 1603.05 886.643 1603.52L886.978 1603.57C889.687 1604.04 891.503 1606.62 891.035 1609.33L886.84 1633.61C886.372 1636.31 883.797 1638.13 881.088 1637.66L880.753 1637.61C878.044 1637.14 876.228 1634.56 876.696 1631.85Z" fill="#F1B104"/>
<path d="M987.385 1487.2L1006.74 1471.95C1008.9 1470.25 1012.03 1470.62 1013.73 1472.78L1013.94 1473.05C1015.64 1475.21 1015.27 1478.34 1013.11 1480.04L993.757 1495.29C991.598 1496.99 988.469 1496.62 986.767 1494.46L986.556 1494.19C984.855 1492.03 985.226 1488.9 987.385 1487.2Z" fill="#FF6E00"/>
<path d="M1064.71 1498.45L1068.9 1474.17C1069.37 1471.47 1071.95 1469.65 1074.66 1470.12L1074.99 1470.18C1077.7 1470.64 1079.52 1473.22 1079.05 1475.93L1074.85 1500.21C1074.38 1502.92 1071.81 1504.73 1069.1 1504.26L1068.77 1504.21C1066.06 1503.74 1064.24 1501.16 1064.71 1498.45Z" fill="#F1B104"/>
<path d="M1179.8 1845.91L1194.46 1826.1C1196.09 1823.89 1199.21 1823.42 1201.42 1825.06L1201.69 1825.26C1203.9 1826.9 1204.37 1830.02 1202.73 1832.22L1188.07 1852.03C1186.44 1854.24 1183.32 1854.7 1181.11 1853.07L1180.84 1852.87C1178.63 1851.23 1178.16 1848.12 1179.8 1845.91Z" fill="white"/>
<path d="M1082.99 1808.34L1097.65 1788.54C1099.28 1786.33 1102.4 1785.86 1104.61 1787.5L1104.88 1787.7C1107.09 1789.33 1107.56 1792.45 1105.92 1794.66L1091.26 1814.47C1089.63 1816.68 1086.51 1817.14 1084.3 1815.51L1084.03 1815.3C1081.82 1813.67 1081.35 1810.55 1082.99 1808.34Z" fill="#573240"/>
<path d="M1244.31 1687.28L1246.13 1662.7C1246.33 1659.96 1248.72 1657.9 1251.46 1658.11L1251.8 1658.13C1254.54 1658.33 1256.6 1660.72 1256.39 1663.46L1254.58 1688.04C1254.37 1690.78 1251.99 1692.83 1249.24 1692.63L1248.91 1692.61C1246.16 1692.4 1244.11 1690.02 1244.31 1687.28Z" fill="white"/>
<path d="M1108.45 1609.91L1110.27 1585.34C1110.47 1582.6 1112.86 1580.54 1115.6 1580.75L1115.94 1580.77C1118.68 1580.97 1120.74 1583.36 1120.54 1586.1L1118.72 1610.67C1118.51 1613.42 1116.13 1615.47 1113.39 1615.27L1113.05 1615.25C1110.31 1615.04 1108.25 1612.66 1108.45 1609.91Z" fill="white"/>
<path d="M1027.56 1931.61L1018.96 1908.52C1018 1905.94 1019.31 1903.07 1021.88 1902.12L1022.2 1902C1024.78 1901.04 1027.64 1902.35 1028.6 1904.92L1037.2 1928.01C1038.16 1930.59 1036.85 1933.46 1034.28 1934.42L1033.96 1934.53C1031.38 1935.49 1028.52 1934.18 1027.56 1931.61Z" fill="white"/>
<path d="M1138.04 1751.54L1139.86 1726.97C1140.06 1724.23 1142.45 1722.17 1145.19 1722.37L1145.53 1722.4C1148.27 1722.6 1150.33 1724.99 1150.13 1727.73L1148.31 1752.3C1148.1 1755.04 1145.72 1757.1 1142.97 1756.9L1142.64 1756.87C1139.9 1756.67 1137.84 1754.28 1138.04 1751.54Z" fill="white"/>
<path d="M1224.26 1749.99L1248.9 1750.36C1251.65 1750.4 1253.84 1752.66 1253.8 1755.41L1253.8 1755.75C1253.75 1758.5 1251.49 1760.69 1248.75 1760.65L1224.11 1760.29C1221.36 1760.24 1219.17 1757.98 1219.21 1755.24L1219.21 1754.9C1219.25 1752.15 1221.51 1749.95 1224.26 1749.99Z" fill="#573240"/>
<path d="M986.343 1833.74L1010.98 1834.1C1013.73 1834.14 1015.92 1836.4 1015.88 1839.15L1015.88 1839.49C1015.84 1842.24 1013.58 1844.44 1010.83 1844.4L986.19 1844.03C983.442 1843.99 981.247 1841.73 981.287 1838.98L981.292 1838.64C981.333 1835.89 983.594 1833.7 986.343 1833.74Z" fill="#573240"/>
<path d="M1043.9 1864.65L1068.54 1865.02C1071.28 1865.06 1073.48 1867.32 1073.44 1870.07L1073.43 1870.41C1073.39 1873.16 1071.13 1875.35 1068.38 1875.31L1043.75 1874.95C1041 1874.91 1038.8 1872.64 1038.84 1869.9L1038.85 1869.56C1038.89 1866.81 1041.15 1864.61 1043.9 1864.65Z" fill="#FF6E00"/>
<path d="M1221.78 1611.21L1245.63 1605.03C1248.29 1604.34 1251 1605.94 1251.69 1608.6L1251.78 1608.93C1252.47 1611.59 1250.87 1614.3 1248.21 1614.99L1224.36 1621.17C1221.7 1621.86 1218.98 1620.27 1218.29 1617.61L1218.21 1617.28C1217.52 1614.62 1219.11 1611.9 1221.78 1611.21Z" fill="#FF6E00"/>
<path d="M1138.14 1639.44L1161.99 1633.26C1164.66 1632.57 1167.37 1634.16 1168.06 1636.83L1168.15 1637.16C1168.84 1639.82 1167.24 1642.53 1164.58 1643.22L1140.73 1649.4C1138.06 1650.09 1135.35 1648.5 1134.66 1645.83L1134.57 1645.5C1133.88 1642.84 1135.48 1640.13 1138.14 1639.44Z" fill="#FF6E00"/>
<path d="M1101.28 1891.8L1125.13 1885.62C1127.79 1884.93 1130.51 1886.52 1131.2 1889.18L1131.28 1889.51C1131.97 1892.17 1130.37 1894.89 1127.71 1895.58L1103.86 1901.76C1101.2 1902.45 1098.48 1900.85 1097.79 1898.19L1097.71 1897.86C1097.02 1895.2 1098.62 1892.49 1101.28 1891.8Z" fill="white"/>
<path d="M1183.78 1672.62L1200.8 1690.44C1202.7 1692.42 1202.62 1695.57 1200.64 1697.47L1200.39 1697.71C1198.4 1699.61 1195.25 1699.53 1193.35 1697.55L1176.33 1679.73C1174.43 1677.74 1174.5 1674.59 1176.49 1672.69L1176.74 1672.46C1178.73 1670.56 1181.88 1670.63 1183.78 1672.62Z" fill="#F1B104"/>
<path d="M1182.98 1772.53L1183.73 1797.16C1183.81 1799.91 1181.65 1802.2 1178.9 1802.29L1178.56 1802.3C1175.82 1802.38 1173.52 1800.22 1173.44 1797.47L1172.69 1772.84C1172.61 1770.09 1174.77 1767.8 1177.52 1767.72L1177.86 1767.71C1180.6 1767.62 1182.9 1769.78 1182.98 1772.53Z" fill="#FF6E00"/>
<path d="M1127.94 1827.99L1144.96 1845.81C1146.86 1847.79 1146.79 1850.95 1144.8 1852.84L1144.56 1853.08C1142.57 1854.98 1139.42 1854.91 1137.52 1852.92L1120.5 1835.1C1118.6 1833.11 1118.67 1829.96 1120.66 1828.06L1120.91 1827.83C1122.89 1825.93 1126.04 1826 1127.94 1827.99Z" fill="#F1B104"/>
<path d="M785.865 1762.21L796.714 1784.33C797.924 1786.8 796.905 1789.79 794.437 1791L794.131 1791.14C791.663 1792.35 788.681 1791.34 787.471 1788.87L776.622 1766.75C775.412 1764.28 776.431 1761.29 778.899 1760.08L779.205 1759.94C781.673 1758.73 784.655 1759.74 785.865 1762.21Z" fill="white"/>
<path d="M863.735 1693.51L874.584 1715.64C875.794 1718.1 874.775 1721.09 872.307 1722.3L872.001 1722.45C869.533 1723.66 866.551 1722.64 865.341 1720.17L854.492 1698.05C853.282 1695.58 854.301 1692.6 856.769 1691.39L857.075 1691.24C859.543 1690.03 862.525 1691.05 863.735 1693.51Z" fill="#573240"/>
<path d="M897.073 1892.43L918.058 1905.35C920.399 1906.79 921.129 1909.85 919.688 1912.2L919.51 1912.49C918.069 1914.83 915.004 1915.56 912.663 1914.12L891.678 1901.2C889.337 1899.76 888.607 1896.7 890.048 1894.35L890.226 1894.06C891.667 1891.72 894.732 1890.99 897.073 1892.43Z" fill="white"/>
<path d="M787.948 1585.86L812.407 1588.84C815.136 1589.18 817.078 1591.66 816.745 1594.39L816.704 1594.72C816.371 1597.45 813.89 1599.4 811.162 1599.06L786.703 1596.08C783.974 1595.75 782.032 1593.27 782.365 1590.54L782.406 1590.2C782.738 1587.47 785.219 1585.53 787.948 1585.86Z" fill="white"/>
<path d="M888.865 1768.52L909.85 1781.43C912.191 1782.87 912.921 1785.94 911.48 1788.28L911.302 1788.57C909.861 1790.91 906.796 1791.64 904.455 1790.2L883.47 1777.28C881.129 1775.84 880.399 1772.78 881.84 1770.44L882.018 1770.15C883.459 1767.81 886.524 1767.08 888.865 1768.52Z" fill="white"/>
<path d="M850.596 1845.79L838.945 1867.5C837.645 1869.93 834.628 1870.84 832.206 1869.54L831.906 1869.38C829.484 1868.08 828.574 1865.06 829.874 1862.64L841.525 1840.93C842.825 1838.5 845.842 1837.59 848.264 1838.89L848.564 1839.05C850.986 1840.35 851.896 1843.37 850.596 1845.79Z" fill="#573240"/>
<path d="M831.703 1632.91L820.052 1654.62C818.752 1657.04 815.735 1657.95 813.313 1656.65L813.013 1656.49C810.591 1655.19 809.681 1652.17 810.981 1649.75L822.632 1628.04C823.932 1625.62 826.949 1624.71 829.371 1626.01L829.671 1626.17C832.093 1627.47 833.003 1630.49 831.703 1632.91Z" fill="#FF6E00"/>
<path d="M974.981 1907.4L969.504 1931.42C968.893 1934.1 966.225 1935.78 963.545 1935.17L963.213 1935.09C960.533 1934.48 958.856 1931.81 959.467 1929.13L964.944 1905.11C965.555 1902.43 968.223 1900.75 970.903 1901.36L971.235 1901.44C973.915 1902.05 975.592 1904.72 974.981 1907.4Z" fill="#FF6E00"/>
<path d="M774.361 1664.5L768.884 1688.52C768.273 1691.2 765.605 1692.88 762.925 1692.27L762.593 1692.19C759.913 1691.58 758.236 1688.92 758.847 1686.24L764.324 1662.21C764.935 1659.53 767.603 1657.85 770.283 1658.47L770.615 1658.54C773.295 1659.15 774.972 1661.82 774.361 1664.5Z" fill="white"/>
<path d="M937.921 1845.42L914.274 1852.34C911.636 1853.11 908.871 1851.6 908.099 1848.96L908.003 1848.64C907.231 1846 908.743 1843.23 911.381 1842.46L935.028 1835.54C937.666 1834.77 940.43 1836.28 941.203 1838.92L941.299 1839.24C942.071 1841.88 940.559 1844.65 937.921 1845.42Z" fill="#F1B104"/>
<path d="M849.561 1798.78L827.347 1788.11C824.869 1786.93 823.824 1783.95 825.014 1781.47L825.161 1781.17C826.35 1778.69 829.323 1777.64 831.802 1778.83L854.016 1789.5C856.494 1790.69 857.539 1793.66 856.349 1796.14L856.202 1796.44C855.012 1798.92 852.039 1799.96 849.561 1798.78Z" fill="#FF6E00"/>
<path d="M827.517 1713.08L794.317 1722.8L797.209 1732.68L830.409 1722.95L827.517 1713.08Z" fill="#F1B104"/>
<path d="M407.456 1258.46C240.336 1258.46 104.856 1396.62 104.856 1567.03C104.856 1737.45 240.336 1875.61 407.456 1875.61C574.576 1875.61 710.056 1737.45 710.056 1567.03C710.056 1396.62 574.576 1258.46 407.456 1258.46ZM407.456 1662.84C356.824 1662.84 315.77 1620.98 315.77 1569.34C315.77 1517.7 356.825 1475.84 407.456 1475.84C458.097 1475.84 499.151 1517.7 499.151 1569.34C499.151 1620.98 458.097 1662.84 407.456 1662.84Z" fill="#573240"/>
<path d="M366.456 1258.46C199.336 1258.46 63.856 1396.62 63.856 1567.03C63.856 1737.45 199.336 1875.61 366.456 1875.61C533.576 1875.61 669.056 1737.45 669.056 1567.03C669.056 1396.62 533.576 1258.46 366.456 1258.46ZM366.456 1673.21C310.206 1673.21 264.596 1626.71 264.596 1569.34C264.596 1511.97 310.206 1465.46 366.456 1465.46C422.716 1465.46 468.326 1511.97 468.326 1569.34C468.326 1626.71 422.716 1673.21 366.456 1673.21Z" fill="#FF1D5D"/>
<path d="M406.671 1322.03H379.66C376.911 1322.03 374.683 1319.8 374.683 1317.05V1316.01C374.683 1313.26 376.911 1311.03 379.66 1311.03H406.672C409.421 1311.03 411.649 1313.26 411.649 1316.01V1317.05C411.648 1319.8 409.42 1322.03 406.671 1322.03Z" fill="white"/>
<path d="M566.246 1550.07H539.235C536.486 1550.07 534.258 1547.84 534.258 1545.1V1544.05C534.258 1541.3 536.486 1539.07 539.235 1539.07H566.246C568.995 1539.07 571.223 1541.3 571.223 1544.05V1545.1C571.223 1547.84 568.995 1550.07 566.246 1550.07Z" fill="#A9D8D5"/>
<path d="M627.186 1516.77L601.259 1524.34C598.621 1525.12 595.857 1523.6 595.086 1520.96L594.793 1519.96C594.022 1517.32 595.536 1514.56 598.174 1513.79L624.101 1506.21C626.739 1505.44 629.503 1506.95 630.274 1509.59L630.567 1510.6C631.338 1513.23 629.824 1516 627.186 1516.77Z" fill="#573240"/>
<path d="M228.933 1540.24H201.921C199.172 1540.24 196.944 1538.01 196.944 1535.26V1534.22C196.944 1531.47 199.172 1529.24 201.921 1529.24H228.933C231.682 1529.24 233.91 1531.47 233.91 1534.22V1535.26C233.91 1538.01 231.682 1540.24 228.933 1540.24Z" fill="white"/>
<path d="M521.821 1506.96L495.84 1499.57C493.196 1498.81 491.663 1496.06 492.415 1493.42L492.701 1492.41C493.453 1489.77 496.206 1488.24 498.85 1488.99L524.831 1496.38C527.475 1497.13 529.008 1499.88 528.256 1502.53L527.97 1503.53C527.217 1506.18 524.464 1507.71 521.821 1506.96Z" fill="#F1B104"/>
<path d="M147.31 1465.46H120.298C117.549 1465.46 115.321 1463.24 115.321 1460.49V1459.44C115.321 1456.69 117.549 1454.46 120.298 1454.46H147.31C150.059 1454.46 152.287 1456.69 152.287 1459.44V1460.49C152.286 1463.24 150.058 1465.46 147.31 1465.46Z" fill="#F1B104"/>
<path d="M435.944 1426.92H408.932C406.183 1426.92 403.955 1424.7 403.955 1421.95V1420.9C403.955 1418.15 406.183 1415.92 408.932 1415.92H435.944C438.693 1415.92 440.921 1418.15 440.921 1420.9V1421.95C440.921 1424.7 438.692 1426.92 435.944 1426.92Z" fill="#573240"/>
<path d="M565.343 1398.94L541.95 1385.44C539.57 1384.06 538.754 1381.02 540.128 1378.64L540.651 1377.73C542.025 1375.35 545.069 1374.53 547.45 1375.91L570.843 1389.42C573.223 1390.79 574.039 1393.83 572.665 1396.21L572.142 1397.12C570.768 1399.5 567.724 1400.32 565.343 1398.94Z" fill="#F6ACC1"/>
<path d="M243.669 1370.24L220.83 1384.66C218.506 1386.13 215.432 1385.43 213.965 1383.11L213.406 1382.22C211.938 1379.9 212.633 1376.82 214.957 1375.36L237.796 1360.94C240.12 1359.47 243.194 1360.16 244.661 1362.49L245.22 1363.37C246.688 1365.7 245.993 1368.77 243.669 1370.24Z" fill="white"/>
<path d="M584.806 1440.57L570.066 1463.2C568.566 1465.51 565.483 1466.16 563.18 1464.66L562.303 1464.09C560 1462.59 559.348 1459.5 560.848 1457.2L575.588 1434.56C577.088 1432.26 580.171 1431.61 582.474 1433.11L583.351 1433.68C585.654 1435.18 586.306 1438.26 584.806 1440.57Z" fill="white"/>
<path d="M362.795 1428.39L339.956 1442.81C337.632 1444.28 334.558 1443.58 333.091 1441.26L332.532 1440.37C331.064 1438.05 331.759 1434.98 334.083 1433.51L356.922 1419.09C359.246 1417.62 362.32 1418.31 363.787 1420.64L364.346 1421.52C365.813 1423.84 365.119 1426.92 362.795 1428.39Z" fill="white"/>
<path d="M287.269 1423.87L277.931 1398.52C276.981 1395.94 278.301 1393.08 280.88 1392.13L281.862 1391.77C284.441 1390.82 287.302 1392.14 288.253 1394.72L297.591 1420.07C298.541 1422.64 297.221 1425.51 294.642 1426.46L293.66 1426.82C291.081 1427.77 288.22 1426.45 287.269 1423.87Z" fill="#F1B104"/>
<path d="M295.886 1345.09L280.14 1323.14C278.538 1320.91 279.049 1317.8 281.283 1316.2L282.133 1315.59C284.366 1313.98 287.476 1314.5 289.078 1316.73L304.824 1338.68C306.426 1340.91 305.915 1344.02 303.681 1345.62L302.831 1346.23C300.597 1347.83 297.488 1347.32 295.886 1345.09Z" fill="#573240"/>
<path d="M525.002 1441.1L509.256 1419.16C507.654 1416.92 508.165 1413.81 510.399 1412.21L511.249 1411.6C513.482 1410 516.592 1410.51 518.194 1412.74L533.94 1434.69C535.542 1436.92 535.031 1440.04 532.797 1441.64L531.947 1442.25C529.713 1443.85 526.604 1443.34 525.002 1441.1Z" fill="#573240"/>
<path d="M178.329 1426.68L157.327 1409.69C155.19 1407.96 154.859 1404.83 156.587 1402.69L157.245 1401.88C158.974 1399.74 162.107 1399.41 164.244 1401.14L185.246 1418.12C187.383 1419.85 187.714 1422.98 185.986 1425.12L185.328 1425.94C183.6 1428.07 180.466 1428.4 178.329 1426.68Z" fill="#A9D8D5"/>
<path d="M495.925 1360.52L474.923 1343.53C472.786 1341.81 472.455 1338.67 474.183 1336.53L474.841 1335.72C476.57 1333.58 479.703 1333.25 481.841 1334.98L502.843 1351.97C504.98 1353.7 505.311 1356.83 503.583 1358.97L502.925 1359.78C501.196 1361.92 498.062 1362.25 495.925 1360.52Z" fill="#F1B104"/>
<path d="M132.19 1542.6L115.472 1521.38C113.771 1519.22 114.142 1516.09 116.301 1514.39L117.123 1513.74C119.282 1512.04 122.411 1512.41 124.113 1514.57L140.831 1535.79C142.532 1537.95 142.161 1541.08 140.002 1542.78L139.18 1543.42C137.02 1545.13 133.891 1544.75 132.19 1542.6Z" fill="#A9D8D5"/>
<path d="M226.064 1458.2L230.663 1431.58C231.131 1428.88 233.706 1427.06 236.415 1427.53L237.446 1427.71C240.155 1428.17 241.971 1430.75 241.503 1433.46L236.904 1460.07C236.436 1462.78 233.861 1464.6 231.152 1464.13L230.121 1463.95C227.412 1463.48 225.596 1460.91 226.064 1458.2Z" fill="#F6ACC1"/>
<path d="M330.33 1376.84L351.546 1360.12C353.705 1358.42 356.834 1358.79 358.536 1360.95L359.183 1361.77C360.884 1363.93 360.513 1367.06 358.354 1368.76L337.138 1385.48C334.979 1387.18 331.85 1386.81 330.148 1384.65L329.501 1383.83C327.8 1381.67 328.171 1378.54 330.33 1376.84Z" fill="#A9D8D5"/>
<path d="M165.284 1499.89L186.5 1483.17C188.659 1481.47 191.788 1481.84 193.49 1484L194.137 1484.82C195.838 1486.98 195.467 1490.11 193.308 1491.81L172.092 1508.53C169.933 1510.23 166.804 1509.86 165.102 1507.7L164.455 1506.88C162.754 1504.72 163.125 1501.59 165.284 1499.89Z" fill="#573240"/>
<path d="M423.848 1378.3L428.447 1351.68C428.915 1348.97 431.49 1347.16 434.199 1347.62L435.23 1347.8C437.939 1348.27 439.755 1350.84 439.287 1353.55L434.688 1380.17C434.22 1382.88 431.645 1384.7 428.936 1384.23L427.905 1384.05C425.196 1383.58 423.38 1381.01 423.848 1378.3Z" fill="#F6ACC1"/>
<path d="M455.701 1460.82L473.682 1440.67C475.512 1438.62 478.658 1438.44 480.709 1440.27L481.49 1440.96C483.541 1442.79 483.721 1445.94 481.891 1447.99L463.91 1468.15C462.08 1470.2 458.934 1470.38 456.883 1468.55L456.102 1467.85C454.051 1466.02 453.871 1462.87 455.701 1460.82Z" fill="#A9D8D5"/>
<path d="M330.465 1816.96L357.473 1817.37C360.221 1817.41 362.415 1819.67 362.373 1822.42L362.357 1823.47C362.315 1826.22 360.053 1828.41 357.305 1828.37L330.297 1827.96C327.549 1827.91 325.355 1825.65 325.397 1822.9L325.413 1821.86C325.455 1819.11 327.717 1816.92 330.465 1816.96Z" fill="white"/>
<path d="M174.387 1586.51L201.395 1586.92C204.143 1586.96 206.337 1589.23 206.295 1591.97L206.279 1593.02C206.237 1595.77 203.975 1597.96 201.227 1597.92L174.219 1597.51C171.471 1597.47 169.277 1595.2 169.319 1592.46L169.335 1591.41C169.376 1588.66 171.638 1586.47 174.387 1586.51Z" fill="#A9D8D5"/>
<path d="M112.946 1618.88L138.986 1611.7C141.636 1610.97 144.376 1612.52 145.107 1615.17L145.385 1616.18C146.116 1618.83 144.56 1621.57 141.91 1622.3L115.87 1629.48C113.22 1630.21 110.48 1628.66 109.749 1626.01L109.471 1625C108.741 1622.35 110.297 1619.61 112.946 1618.88Z" fill="#573240"/>
<path d="M511.511 1601.49L538.519 1601.9C541.267 1601.94 543.461 1604.2 543.419 1606.95L543.403 1608C543.361 1610.75 541.099 1612.94 538.351 1612.9L511.343 1612.49C508.595 1612.44 506.401 1610.18 506.443 1607.43L506.459 1606.39C506.5 1603.64 508.762 1601.45 511.511 1601.49Z" fill="white"/>
<path d="M218.15 1630.3L244.015 1638.08C246.647 1638.87 248.139 1641.65 247.346 1644.28L247.044 1645.28C246.252 1647.91 243.476 1649.41 240.844 1648.61L214.979 1640.83C212.347 1640.04 210.855 1637.26 211.648 1634.63L211.95 1633.63C212.742 1631 215.518 1629.5 218.15 1630.3Z" fill="#F1B104"/>
<path d="M591.984 1677.5L618.992 1677.91C621.74 1677.95 623.934 1680.21 623.892 1682.96L623.876 1684.01C623.834 1686.76 621.572 1688.95 618.824 1688.91L591.816 1688.5C589.068 1688.45 586.874 1686.19 586.916 1683.44L586.932 1682.4C586.974 1679.65 589.236 1677.46 591.984 1677.5Z" fill="#F1B104"/>
<path d="M302.796 1711.63L329.804 1712.04C332.552 1712.08 334.746 1714.35 334.704 1717.09L334.688 1718.14C334.646 1720.89 332.384 1723.08 329.636 1723.04L302.628 1722.63C299.88 1722.59 297.686 1720.32 297.728 1717.58L297.744 1716.53C297.786 1713.78 300.047 1711.59 302.796 1711.63Z" fill="#573240"/>
<path d="M172.984 1737.64L196.168 1751.5C198.527 1752.91 199.296 1755.96 197.886 1758.32L197.349 1759.22C195.938 1761.58 192.883 1762.35 190.523 1760.94L167.339 1747.08C164.98 1745.67 164.211 1742.61 165.621 1740.25L166.158 1739.35C167.569 1736.99 170.625 1736.23 172.984 1737.64Z" fill="#F6ACC1"/>
<path d="M494.183 1771.24L517.24 1757.17C519.586 1755.74 522.649 1756.48 524.081 1758.83L524.626 1759.72C526.058 1762.07 525.317 1765.13 522.971 1766.56L499.914 1780.63C497.568 1782.07 494.505 1781.32 493.073 1778.98L492.528 1778.08C491.096 1775.74 491.837 1772.68 494.183 1771.24Z" fill="white"/>
<path d="M154.159 1695.72L169.242 1673.31C170.777 1671.03 173.87 1670.43 176.15 1671.96L177.018 1672.54C179.298 1674.08 179.903 1677.17 178.368 1679.45L163.285 1701.86C161.75 1704.14 158.657 1704.75 156.377 1703.21L155.509 1702.63C153.229 1701.09 152.624 1698 154.159 1695.72Z" fill="white"/>
<path d="M375.958 1711.28L399.015 1697.21C401.361 1695.78 404.424 1696.52 405.856 1698.87L406.401 1699.76C407.833 1702.11 407.092 1705.17 404.746 1706.6L381.689 1720.67C379.343 1722.11 376.28 1721.36 374.848 1719.02L374.303 1718.12C372.871 1715.78 373.612 1712.71 375.958 1711.28Z" fill="white"/>
<path d="M451.406 1716.95L460.357 1742.44C461.268 1745.03 459.904 1747.87 457.31 1748.78L456.323 1749.13C453.73 1750.04 450.889 1748.68 449.978 1746.08L441.027 1720.6C440.116 1718 441.48 1715.16 444.074 1714.25L445.061 1713.9C447.655 1712.99 450.495 1714.36 451.406 1716.95Z" fill="#F1B104"/>
<path d="M441.589 1795.59L456.998 1817.78C458.566 1820.04 458.007 1823.14 455.75 1824.71L454.891 1825.3C452.633 1826.87 449.532 1826.31 447.964 1824.05L432.555 1801.87C430.987 1799.61 431.546 1796.51 433.803 1794.94L434.662 1794.34C436.92 1792.78 440.021 1793.34 441.589 1795.59Z" fill="#573240"/>
<path d="M213.964 1696.09L229.373 1718.28C230.941 1720.54 230.382 1723.64 228.125 1725.21L227.266 1725.8C225.008 1727.37 221.907 1726.81 220.339 1724.55L204.93 1702.37C203.362 1700.11 203.921 1697.01 206.178 1695.44L207.037 1694.84C209.295 1693.28 212.396 1693.84 213.964 1696.09Z" fill="#573240"/>
<path d="M560.377 1715.81L581.118 1733.11C583.229 1734.88 583.512 1738.01 581.751 1740.12L581.081 1740.93C579.32 1743.04 576.182 1743.32 574.071 1741.56L553.33 1724.25C551.219 1722.49 550.936 1719.36 552.697 1717.25L553.367 1716.44C555.128 1714.33 558.266 1714.05 560.377 1715.81Z" fill="#A9D8D5"/>
<path d="M241.809 1777.11L262.55 1794.42C264.661 1796.18 264.944 1799.32 263.183 1801.43L262.513 1802.23C260.752 1804.34 257.614 1804.62 255.503 1802.86L234.762 1785.56C232.651 1783.8 232.368 1780.66 234.129 1778.55L234.799 1777.74C236.56 1775.63 239.698 1775.35 241.809 1777.11Z" fill="#F1B104"/>
<path d="M608.279 1600.6L624.672 1622.07C626.34 1624.26 625.921 1627.38 623.737 1629.05L622.906 1629.68C620.721 1631.35 617.598 1630.93 615.93 1628.75L599.537 1607.28C597.869 1605.1 598.288 1601.97 600.472 1600.3L601.303 1599.67C603.487 1598 606.611 1598.42 608.279 1600.6Z" fill="#A9D8D5"/>
<path d="M513.128 1683.56L508.123 1710.1C507.614 1712.8 505.011 1714.58 502.31 1714.07L501.282 1713.88C498.581 1713.37 496.804 1710.77 497.313 1708.07L502.318 1681.52C502.827 1678.82 505.43 1677.04 508.131 1677.55L509.159 1677.75C511.861 1678.26 513.638 1680.86 513.128 1683.56Z" fill="#F6ACC1"/>
<path d="M407.633 1763.32L386.164 1779.72C383.979 1781.38 380.856 1780.97 379.188 1778.78L378.553 1777.95C376.885 1775.76 377.304 1772.64 379.488 1770.97L400.957 1754.58C403.142 1752.91 406.265 1753.33 407.933 1755.52L408.568 1756.35C410.237 1758.53 409.818 1761.65 407.633 1763.32Z" fill="#A9D8D5"/>
<path d="M574.537 1642.8L553.068 1659.19C550.883 1660.86 547.76 1660.44 546.092 1658.26L545.457 1657.43C543.789 1655.24 544.208 1652.12 546.392 1650.45L567.861 1634.06C570.046 1632.39 573.169 1632.81 574.837 1634.99L575.472 1635.82C577.141 1638.01 576.722 1641.13 574.537 1642.8Z" fill="#573240"/>
<path d="M314.149 1760.44L309.144 1786.98C308.635 1789.68 306.032 1791.46 303.331 1790.95L302.303 1790.75C299.602 1790.25 297.825 1787.64 298.334 1784.94L303.339 1758.4C303.848 1755.7 306.451 1753.92 309.152 1754.43L310.18 1754.62C312.881 1755.13 314.658 1757.74 314.149 1760.44Z" fill="#F6ACC1"/>
<path d="M283.558 1677.43L265.272 1697.31C263.411 1699.34 260.263 1699.47 258.24 1697.61L257.47 1696.9C255.447 1695.04 255.315 1691.89 257.176 1689.87L275.462 1669.99C277.323 1667.96 280.471 1667.83 282.494 1669.69L283.264 1670.4C285.287 1672.26 285.419 1675.41 283.558 1677.43Z" fill="#A9D8D5"/>
<path d="M1320.95 993.83L1320.14 1000.83H393.14L393.95 993.83H1320.95Z" fill="#FDE5E3"/>
<path d="M1304.63 1078.77C1303.37 1081.17 1301.99 1083.5 1300.53 1085.77H405.04C403.57 1083.5 402.19 1081.16 400.92 1078.77H1304.63Z" fill="#FDE5E3"/>
<path d="M1316.07 1036.3L1315.26 1043.3H390.3C390.08 1040.99 389.95 1038.66 389.91 1036.3H1316.07Z" fill="#FDE5E3"/>
<path d="M1414.8 1572.35H1035.48V1997.05H1414.8V1572.35Z" fill="#F6ACC1"/>
<path d="M1035.48 1572.35H0.459961V1997.05H1035.48V1572.35Z" fill="#FCD4D0"/>
<path d="M1035.94 1611.32H0.459961V1618.32H1035.94V1611.32Z" fill="#FDE5E3"/>
<path d="M1035.48 1653.79H0.459961V1660.79H1035.48V1653.79Z" fill="#FDE5E3"/>
<path d="M1035.48 1696.26H0.459961V1703.26H1035.48V1696.26Z" fill="#FDE5E3"/>
<path d="M1035.48 1738.73H0.459961V1745.73H1035.48V1738.73Z" fill="#FDE5E3"/>
<path d="M1035.48 1781.2H0.459961V1788.2H1035.48V1781.2Z" fill="#FDE5E3"/>
<path d="M1035.48 1823.67H0.459961V1830.67H1035.48V1823.67Z" fill="#FDE5E3"/>
<path d="M1035.48 1908.61H0.459961V1915.61H1035.48V1908.61Z" fill="#FDE5E3"/>
<path d="M1035.48 1866.14H0.459961V1873.14H1035.48V1866.14Z" fill="#FDE5E3"/>
<path d="M1035.48 1951.08H0.459961V1958.08H1035.48V1951.08Z" fill="#FDE5E3"/>
<path d="M1414.8 1611.32H1035.94V1618.32H1414.8V1611.32Z" fill="#FABFD6"/>
<path d="M1414.8 1653.79H1035.48V1660.79H1414.8V1653.79Z" fill="#FABFD6"/>
<path d="M1414.8 1696.26H1035.48V1703.26H1414.8V1696.26Z" fill="#FABFD6"/>
<path d="M1414.8 1738.73H1035.48V1745.73H1414.8V1738.73Z" fill="#FABFD6"/>
<path d="M1414.8 1781.2H1035.48V1788.2H1414.8V1781.2Z" fill="#FABFD6"/>
<path d="M1414.8 1823.67H1035.48V1830.67H1414.8V1823.67Z" fill="#FABFD6"/>
<path d="M1414.8 1908.61H1035.48V1915.61H1414.8V1908.61Z" fill="#FABFD6"/>
<path d="M1414.8 1866.14H1035.48V1873.14H1414.8V1866.14Z" fill="#FABFD6"/>
<path d="M1414.8 1951.08H1035.48V1958.08H1414.8V1951.08Z" fill="#FABFD6"/>
<path d="M1805.57 1212.69L1715.42 1997.05H1267.64L1177.49 1212.69H1805.57Z" fill="white"/>
<path d="M1805.57 1212.68L1715.42 1997.04H1617.87L1704.57 1242.68H1180.94L1177.49 1212.68H1805.57Z" fill="#E0F1F0"/>
<path d="M1854.19 1212.68H1128.88L1134.63 1180.61C1137.09 1166.91 1149.01 1156.93 1162.93 1156.93H1175.37L1184.5 1122.12C1190.9 1097.67 1213 1080.62 1238.28 1080.62H1744.79C1770.07 1080.62 1792.16 1097.67 1798.57 1122.12L1807.69 1156.93H1820.14C1834.06 1156.93 1845.98 1166.91 1848.43 1180.61L1854.19 1212.68Z" fill="#573240"/>
<path d="M1267.64 1997.05H1715.42" stroke="#573240" stroke-width="5" stroke-miterlimit="10" stroke-linecap="round"/>
<path d="M1474.42 1701.9C1552.02 1701.9 1614.92 1634.74 1614.92 1551.9C1614.92 1469.06 1552.02 1401.9 1474.42 1401.9C1396.83 1401.9 1333.92 1469.06 1333.92 1551.9C1333.92 1634.74 1396.83 1701.9 1474.42 1701.9Z" fill="#A9D8D5"/>
<path d="M1496.36 1509.27L1446.11 1586.44C1443.46 1590.51 1437.58 1590.77 1434.58 1586.95C1421.95 1570.87 1421.62 1545.44 1435.29 1524.44C1448.96 1503.45 1472.35 1493.47 1492.16 1498.52C1496.87 1499.72 1499.01 1505.2 1496.36 1509.27Z" fill="#573240"/>
<path d="M1514.77 1576.2C1501.24 1596.98 1478.17 1606.97 1458.49 1602.28C1453.73 1601.14 1451.55 1595.61 1454.22 1591.5L1504.27 1514.64C1506.94 1510.53 1512.89 1510.29 1515.85 1514.19C1528.11 1530.28 1528.3 1555.41 1514.77 1576.2Z" fill="#573240"/>
</svg>
