<svg width="240" height="52" viewBox="0 0 240 52" fill="none" xmlns="http://www.w3.org/2000/svg">
<path d="M83.3567 21.4868C85.7117 21.4868 87.4507 22.2044 88.5734 23.6396C89.7236 25.0749 90.2987 27.2829 90.2987 30.2638V40.3531C90.2987 41.4576 89.4032 42.3531 88.2987 42.3531H84.987C83.8824 42.3531 82.987 41.4576 82.987 40.3531V30.4709C82.987 29.284 82.809 28.4284 82.453 27.904C82.097 27.3796 81.5082 27.1173 80.6867 27.1173C79.6734 27.1173 78.893 27.4762 78.3453 28.1938C77.825 28.9114 77.5648 29.9326 77.5648 31.2575V40.3531C77.5648 41.4576 76.6694 42.3531 75.5648 42.3531H72.2531C71.1486 42.3531 70.2531 41.4576 70.2531 40.3531V30.4709C70.2531 29.284 70.0751 28.4284 69.7191 27.904C69.3631 27.3796 68.7744 27.1173 67.9528 27.1173C66.9396 27.1173 66.1728 27.4762 65.6525 28.1938C65.1322 28.9114 64.8721 29.9326 64.8721 31.2575V40.3531C64.8721 41.4576 63.9766 42.3531 62.8721 42.3531H59.5604C58.4558 42.3531 57.5604 41.4576 57.5604 40.3531V23.9836C57.5604 22.879 58.4558 21.9836 59.5604 21.9836H64.0757C64.4021 21.9836 64.6667 22.2482 64.6667 22.5746V22.5746C64.6667 23.1614 65.5174 23.4492 65.966 23.071C67.2186 22.0148 68.8393 21.4868 70.8282 21.4868C72.1634 21.4868 73.2988 21.7408 74.2342 22.2489C75.6554 23.0208 78.037 23.2569 79.4475 22.4657C79.4634 22.4567 79.4794 22.4478 79.4954 22.439C80.673 21.8042 81.9601 21.4868 83.3567 21.4868Z" fill="#FF1D5D"/>
<path d="M112.799 21.9836C113.904 21.9836 114.799 22.879 114.799 23.9836V40.3531C114.799 41.4576 113.904 42.3531 112.799 42.3531H108.308C107.968 42.3531 107.693 42.0779 107.693 41.7384V41.7384C107.693 41.1229 106.78 40.817 106.305 41.2078C105.985 41.4708 105.64 41.7008 105.27 41.8976C104.311 42.4221 103.202 42.6843 101.942 42.6843C99.3408 42.6843 97.4102 41.9667 96.1505 40.5314C94.8908 39.0686 94.261 36.8605 94.261 33.9072V23.9836C94.261 22.879 95.1564 21.9836 96.261 21.9836H99.5727C100.677 21.9836 101.573 22.879 101.573 23.9836V34.0728C101.573 36.06 102.422 37.0537 104.119 37.0537C105.105 37.0537 105.913 36.6949 106.543 35.9773C107.173 35.2596 107.488 34.3212 107.488 33.1619V23.9836C107.488 22.879 108.383 21.9836 109.488 21.9836H112.799Z" fill="#FF1D5D"/>
<path d="M132.652 21.4868C135.062 21.4868 136.855 22.2182 138.033 23.681C139.21 25.1163 139.799 27.3106 139.799 30.2638V40.3531C139.799 41.4576 138.904 42.3531 137.799 42.3531H134.488C133.383 42.3531 132.488 41.4576 132.488 40.3531V30.5951C132.488 29.3806 132.268 28.4974 131.83 27.9454C131.42 27.3934 130.79 27.1173 129.941 27.1173C128.845 27.1173 127.969 27.4762 127.312 28.1938C126.682 28.8838 126.367 29.8222 126.367 31.0091V40.3531C126.367 41.4576 125.472 42.3531 124.367 42.3531H121.055C119.951 42.3531 119.055 41.4576 119.055 40.3531V23.9836C119.055 22.879 119.951 21.9836 121.055 21.9836H125.519C125.874 21.9836 126.162 22.2712 126.162 22.626V22.626C126.162 23.2588 127.074 23.5762 127.565 23.1767C127.975 22.8424 128.425 22.5551 128.914 22.3148C130.037 21.7628 131.283 21.4868 132.652 21.4868Z" fill="#FF1D5D"/>
<path d="M153.99 42.6843C150.54 42.6843 147.842 41.7458 145.898 39.869C143.954 37.9921 142.981 35.439 142.981 32.2097C142.981 30.0845 143.447 28.2076 144.378 26.5791C145.337 24.9507 146.665 23.6948 148.363 22.8116C150.088 21.9284 152.073 21.4868 154.319 21.4868C155.825 21.4868 157.276 21.7076 158.673 22.1492C159.543 22.419 160.311 22.7454 160.976 23.1285C161.705 23.5482 161.928 24.4543 161.635 25.2427L161.243 26.2952C160.767 27.5751 159.129 28.04 157.838 27.5961C157.815 27.5883 157.792 27.5805 157.769 27.5728C156.811 27.214 155.907 27.0346 155.058 27.0346C153.579 27.0346 152.443 27.4486 151.649 28.2766C150.882 29.1046 150.499 30.3605 150.499 32.0441C150.499 33.7278 150.882 34.9974 151.649 35.853C152.443 36.7087 153.579 37.1365 155.058 37.1365C155.907 37.1365 156.811 36.9709 157.769 36.6397C157.779 36.6359 157.79 36.6322 157.8 36.6284C159.103 36.1496 160.783 36.6093 161.264 37.9117L161.633 38.9141C161.927 39.7096 161.695 40.6218 160.96 41.0445C160.258 41.4484 159.454 41.788 158.55 42.0633C157.126 42.4773 155.606 42.6843 153.99 42.6843Z" fill="#FF1D5D"/>
<path d="M178.061 21.4868C180.471 21.4868 182.265 22.2182 183.442 23.681C184.62 25.1163 185.209 27.3106 185.209 30.2638V40.3531C185.209 41.4576 184.313 42.3531 183.209 42.3531H179.897C178.792 42.3531 177.897 41.4576 177.897 40.3531V30.5951C177.897 29.3806 177.678 28.4974 177.24 27.9454C176.829 27.3934 176.199 27.1173 175.35 27.1173C174.255 27.1173 173.378 27.4762 172.721 28.1938C172.091 28.8838 171.776 29.8222 171.776 31.0091V40.3531C171.776 41.4576 170.881 42.3531 169.776 42.3531H166.465C165.36 42.3531 164.465 41.4576 164.465 40.3531V15.1651C164.465 14.0605 165.36 13.1651 166.465 13.1651H169.776C170.881 13.1651 171.776 14.0605 171.776 15.1651V20.9037C171.776 22.0446 173.453 22.7132 174.487 22.232V22.232C175.555 21.7352 176.747 21.4868 178.061 21.4868Z" fill="#FF1D5D"/>
<path d="M191.335 42.3531C190.231 42.3531 189.335 41.4576 189.335 40.3531V23.9836C189.335 22.879 190.231 21.9836 191.335 21.9836H194.647C195.752 21.9836 196.647 22.879 196.647 23.9836V40.3531C196.647 41.4576 195.752 42.3531 194.647 42.3531H191.335ZM189.171 13.7988C189.171 12.6943 190.067 11.7988 191.171 11.7988H194.811C195.916 11.7988 196.811 12.6943 196.811 13.7988V16.4645C196.811 17.569 195.916 18.4645 194.811 18.4645H191.171C190.067 18.4645 189.171 17.569 189.171 16.4645V13.7988Z" fill="#FF1D5D"/>
<path d="M219.537 31.9199C219.537 32.8345 218.796 33.576 217.881 33.576H209.408C208.173 33.576 207.152 34.7588 207.863 35.7686C208.045 36.0275 208.253 36.2488 208.488 36.4327C209.227 37.0123 210.281 37.3021 211.651 37.3021C212.636 37.3021 213.636 37.1365 214.649 36.8053C214.787 36.7603 214.922 36.713 215.056 36.6634C216.292 36.2047 217.823 36.6528 218.293 37.8847L218.666 38.8607C218.987 39.7011 218.714 40.6677 217.92 41.0907C217.207 41.4709 216.418 41.7951 215.553 42.0633C214.129 42.4773 212.705 42.6843 211.281 42.6843C208.953 42.6843 206.94 42.2565 205.242 41.4008C203.545 40.5452 202.23 39.317 201.299 37.7161C200.395 36.1152 199.944 34.2384 199.944 32.0855C199.944 30.043 200.368 28.2214 201.217 26.6205C202.093 24.9921 203.298 23.7362 204.832 22.853C206.393 21.9422 208.145 21.4868 210.09 21.4868C212.992 21.4868 215.293 22.4252 216.99 24.3021C218.688 26.1513 219.537 28.6906 219.537 31.9199V31.9199ZM210.295 26.4549C209.045 26.4549 208.141 26.9566 207.581 27.9601C207 29.0023 208.013 30.0982 209.206 30.0982H211.277C212.435 30.0982 213.439 29.0691 212.937 28.0255C212.434 26.9785 211.554 26.4549 210.295 26.4549Z" fill="#FF1D5D"/>
<path d="M231.004 42.6843C229.06 42.6843 227.266 42.4773 225.623 42.0633C224.569 41.7977 223.622 41.4527 222.783 41.0282C221.978 40.6213 221.691 39.6543 222.003 38.8079L222.453 37.5899C222.898 36.3835 224.356 35.9062 225.539 36.4099C226.025 36.6167 226.532 36.8037 227.061 36.9709C228.457 37.3849 229.799 37.5919 231.086 37.5919C231.88 37.5919 232.497 37.4815 232.935 37.2607C233.373 37.0123 233.592 36.6811 233.592 36.2671C233.592 35.9082 233.428 35.6322 233.099 35.439C232.798 35.2458 232.168 35.0388 231.21 34.818L227.964 34.0728C225.911 33.6036 224.432 32.9135 223.528 32.0027C222.624 31.0919 222.173 29.7946 222.173 28.111C222.173 26.8137 222.556 25.6683 223.323 24.6747C224.09 23.6534 225.158 22.8668 226.527 22.3148C227.923 21.7628 229.498 21.4868 231.251 21.4868C232.702 21.4868 234.14 21.7076 235.564 22.1492C236.461 22.405 237.305 22.7294 238.097 23.1222C238.946 23.5429 239.259 24.5608 238.912 25.4419L238.502 26.485C238.043 27.6518 236.637 28.0989 235.485 27.6051C235.088 27.4353 234.69 27.2865 234.29 27.1588C233.195 26.7723 232.154 26.5791 231.168 26.5791C230.374 26.5791 229.758 26.7033 229.32 26.9517C228.882 27.2002 228.663 27.559 228.663 28.0282C228.663 28.3042 228.8 28.5388 229.074 28.732C229.347 28.8976 229.827 29.0632 230.511 29.2288L233.921 30.0154C236.057 30.4847 237.604 31.2161 238.562 32.2097C239.521 33.1758 240 34.5006 240 36.1843C240 38.1991 239.192 39.7862 237.576 40.9454C235.988 42.1047 233.797 42.6843 231.004 42.6843Z" fill="#FF1D5D"/>
<path d="M10.8398 10.0967C10.8398 6.85536 13.507 4.02136 16.952 4.36152C28.1694 5.4728 38.5619 10.751 46.0763 19.1534C48.3946 21.7382 47.6731 25.5754 45.0385 27.4842L44.122 28.1494L43.3355 26.9794L43.3181 26.9555C36.4065 17.407 25.1615 11.193 12.4648 11.193H10.8398V10.0967V10.0967ZM40.6705 28.8384L41.4895 30.0582L32.9376 36.2657L32.5 36.5907V41.145C32.5 41.7197 32.2717 42.2708 31.8654 42.6771C31.459 43.0834 30.9079 43.3117 30.3333 43.3117C29.7587 43.3117 29.2076 43.0834 28.8012 42.6771C28.3949 42.2708 28.1666 41.7197 28.1666 41.145V41.015C28.132 40.7423 27.9949 40.493 27.7833 40.3176C27.5716 40.1421 27.3012 40.0537 27.0268 40.0702C26.7524 40.0868 26.4946 40.207 26.3055 40.4066C26.1164 40.6061 26.0103 40.8701 26.0086 41.145V44.3972C26.0087 44.9531 25.7951 45.4878 25.412 45.8906C25.0289 46.2934 24.5057 46.5336 23.9504 46.5614C23.3952 46.5892 22.8506 46.4026 22.4291 46.0401C22.0077 45.6776 21.7417 45.167 21.6861 44.6139L18.5661 46.8672C15.34 49.1942 10.8311 46.891 10.8333 42.9109L10.8398 14.4409H12.4648C24.0651 14.4409 34.3395 20.111 40.6705 28.8384V28.8384ZM19.5086 23.8117C20.0833 23.8117 20.6344 23.5834 21.0407 23.1771C21.447 22.7708 21.6753 22.2197 21.6753 21.645C21.6753 21.0704 21.447 20.5193 21.0407 20.113C20.6344 19.7066 20.0833 19.4784 19.5086 19.4784C18.934 19.4784 18.3829 19.7066 17.9766 20.113C17.5703 20.5193 17.342 21.0704 17.342 21.645C17.342 22.2197 17.5703 22.7708 17.9766 23.1771C18.3829 23.5834 18.934 23.8117 19.5086 23.8117V23.8117ZM28.1753 30.3074C28.7499 30.3074 29.301 30.0791 29.7074 29.6728C30.1137 29.2664 30.342 28.7153 30.342 28.1407C30.342 27.5661 30.1137 27.015 29.7074 26.6086C29.301 26.2023 28.7499 25.974 28.1753 25.974C27.6007 25.974 27.0496 26.2023 26.6432 26.6086C26.2369 27.015 26.0086 27.5661 26.0086 28.1407C26.0086 28.7153 26.2369 29.2664 26.6432 29.6728C27.0496 30.0791 27.6007 30.3074 28.1753 30.3074V30.3074ZM19.5086 36.803C20.0833 36.803 20.6344 36.5747 21.0407 36.1684C21.447 35.7621 21.6753 35.211 21.6753 34.6364C21.6753 34.0617 21.447 33.5106 21.0407 33.1043C20.6344 32.698 20.0833 32.4697 19.5086 32.4697C18.934 32.4697 18.3829 32.698 17.9766 33.1043C17.5703 33.5106 17.342 34.0617 17.342 34.6364C17.342 35.211 17.5703 35.7621 17.9766 36.1684C18.3829 36.5747 18.934 36.803 19.5086 36.803V36.803Z" fill="#FF1D5D"/>
</svg>
